<?xml version="1.0" standalone="no"?>
<!DOCTYPE svg PUBLIC "-//W3C//DTD SVG 20010904//EN"
 "http://www.w3.org/TR/2001/REC-SVG-20010904/DTD/svg10.dtd">
<svg version="1.0" xmlns="http://www.w3.org/2000/svg"
 width="800.000000pt" height="800.000000pt" viewBox="0 0 800.000000 800.000000"
 preserveAspectRatio="xMidYMid meet">
<metadata>
Created by potrace 1.11, written by Peter Selinger 2001-2013
</metadata>
<g transform="translate(0.000000,800.000000) scale(0.100000,-0.100000)"
fill="#000000" stroke="none">
<path d="M2838 7017 l-137 -82 -1 -392 0 -393 -30 0 c-23 0 -44 -15 -100 -71
l-70 -71 0 -177 0 -176 78 -78 c50 -50 85 -77 100 -77 l22 0 0 -392 0 -393 96
-55 96 -55 -1196 -3 -1196 -2 0 -433 0 -432 123 -2 c308 -4 555 -52 827 -160
468 -185 793 -523 839 -873 50 -381 -201 -773 -636 -994 -44 -22 -53 -31 -54
-54 0 -36 0 -612 0 -684 l1 -58 288 0 287 0 1 108 c0 126 18 181 113 352 33
58 77 141 100 184 l41 80 0 -65 c1 -129 80 -280 218 -418 95 -93 176 -159 150
-121 -110 159 -168 351 -168 552 0 214 74 405 188 487 l28 20 -23 -48 c-13
-26 -24 -67 -25 -92 -1 -56 11 -129 21 -129 16 0 97 65 150 119 81 83 146 189
183 300 28 86 31 108 31 216 0 118 -11 172 -58 278 -7 17 -2 16 42 -6 123 -63
235 -190 280 -318 37 -106 33 -188 -17 -380 -47 -183 -52 -269 -20 -370 23
-76 78 -170 126 -219 l35 -35 -16 38 c-33 79 -13 206 49 317 14 25 60 81 103
126 89 92 203 191 182 156 -8 -12 -17 -22 -20 -22 -17 0 -52 -111 -57 -175 -8
-134 39 -254 180 -450 153 -215 193 -296 204 -415 l7 -70 348 0 349 0 0 400 0
400 -89 0 -90 0 -78 78 c-91 90 -104 106 -160 192 -56 86 -100 186 -124 279
-25 93 -27 244 -6 314 48 153 204 281 408 336 134 36 145 37 729 45 168 3 325
8 350 11 302 41 518 105 765 225 138 67 297 167 392 245 216 178 381 402 452
612 23 67 56 242 47 250 -3 3 -480 5 -1060 4 l-1056 0 0 74 0 75 -265 0 -264
0 1 38 c0 20 0 54 -1 74 l-1 38 -730 2 -730 3 103 60 102 60 3 387 2 386 28 4
c15 2 542 3 1172 3 997 -1 1161 -4 1265 -18 209 -28 257 -32 385 -32 117 0
129 2 183 29 216 105 283 373 143 564 -42 57 -106 105 -176 133 -55 22 -250
18 -470 -10 -41 -5 -113 -13 -160 -16 -47 -4 -96 -9 -110 -13 -28 -6 -2152
-11 -2217 -4 l-43 4 -2 391 -3 391 -150 88 -150 87 -160 0 -160 0 -137 -82z"/>
</g>
</svg>
